<?xml version="1.0" encoding="utf-8"?>
<!-- Generator: Adobe Illustrator 19.0.0, SVG Export Plug-In . SVG Version: 6.00 Build 0)  -->
<svg version="1.1" id="Layer_1" xmlns="http://www.w3.org/2000/svg" xmlns:xlink="http://www.w3.org/1999/xlink" x="0px" y="0px"
	 width="120px" height="100px" viewBox="0 0 120 100" enable-background="new 0 0 120 100" xml:space="preserve">
<g id="XMLID_59_">
	<rect id="XMLID_266_" x="47.094" y="76.028" fill="#00005E" width="5.758" height="1.143"/>
	<rect id="XMLID_265_" x="67.359" y="76.028" fill="#00005E" width="5.758" height="1.143"/>
	<path id="XMLID_261_" fill="#00005E" d="M66.999,77.848c-0.532-3.403-3.415-6.004-6.893-6.004l0,0
		c-3.478,0-6.361,2.601-6.893,6.004h-6.119v3.408h26.023v-3.408H66.999z M60.106,74.996c0.617,0,1.118,0.512,1.118,1.144
		c0,0.632-0.501,1.143-1.118,1.143c-0.618,0-1.118-0.512-1.118-1.143C58.988,75.508,59.488,74.996,60.106,74.996z M72.321,80.18
		h-24.43v-0.806h24.43V80.18z"/>
	<path id="XMLID_257_" fill="#00005E" d="M52.853,83.276v-1.143h-5.758v1.143c0.495,0,0.896,0.41,0.896,0.916v10.689
		c0,0.506-0.401,0.916-0.896,0.916v1.143h5.758v-1.143c-0.495,0-0.896-0.41-0.896-0.916V84.192
		C51.957,83.686,52.358,83.276,52.853,83.276z M49.38,95.225h-0.584V83.848h0.584V95.225z M51.152,95.225h-0.585V83.848h0.585
		V95.225z"/>
	<path id="XMLID_253_" fill="#00005E" d="M59.424,83.276v-1.143h-5.758v1.143c0.495,0,0.896,0.41,0.896,0.916v10.689
		c0,0.506-0.401,0.916-0.896,0.916v1.143h5.758v-1.143c-0.495,0-0.896-0.41-0.896-0.916V84.192
		C58.528,83.686,58.929,83.276,59.424,83.276z M55.951,95.225h-0.585V83.848h0.585V95.225z M57.723,95.225h-0.584V83.848h0.584
		V95.225z"/>
	<path id="XMLID_249_" fill="#00005E" d="M65.995,83.276v-1.143h-5.758v1.143c0.495,0,0.896,0.41,0.896,0.916v10.689
		c0,0.506-0.401,0.916-0.896,0.916v1.143h5.758v-1.143c-0.495,0-0.896-0.41-0.896-0.916V84.192
		C65.099,83.686,65.5,83.276,65.995,83.276z M62.522,95.225h-0.584V83.848h0.584V95.225z M64.294,95.225h-0.585V83.848h0.585V95.225
		z"/>
	<path id="XMLID_245_" fill="#00005E" d="M72.566,83.276v-1.143h-5.758v1.143c0.495,0,0.896,0.41,0.896,0.916v10.689
		c0,0.506-0.401,0.916-0.896,0.916v1.143h5.758v-1.143c-0.495,0-0.896-0.41-0.896-0.916V84.192
		C71.67,83.686,72.071,83.276,72.566,83.276z M69.093,95.225h-0.584V83.848h0.584V95.225z M70.865,95.225H70.28V83.848h0.584V95.225
		z"/>
	<rect id="XMLID_244_" x="47.094" y="97.834" fill="#00005E" width="26.023" height="2.166"/>
	<path id="XMLID_240_" fill="#00005E" d="M59.011,5.68c-0.581-0.02-1.212-0.078-1.383-0.229c-0.337-0.298-0.577-0.918-0.631-1.683
		s-0.056-3.471-2.895-3.737c-2.838-0.266-4.491,1.245-7.005,2.423c-2.514,1.178-7.788,3.532-11.006,4.144
		c-2.576,0.49,1.561,0.601,3.743,0.509c1.371-0.588,9.626-4.122,11.179-4.693c0,0-7.308,3.41-11.09,5.195
		c-0.497,0.321-0.946,0.683-0.763,0.846c0.272,0.243,2.548,0.426,4.39,0.237c1.172-0.46,5.507-2.179,7.767-3.336
		c0,0-4.537,2.465-7.188,3.498c-0.723,0.378-1.494,0.883-1.218,1.201c0.38,0.438,2.873,0.278,4.375-0.142
		c1.037-0.583,3.621-2.047,4.347-2.564c0.061-0.045,0.096-0.071,0.096-0.071c-0.026,0.021-0.06,0.045-0.096,0.071
		c-0.444,0.327-2.37,1.733-4.001,2.73c-0.406,0.434-0.795,0.999-0.412,1.288c0.586,0.441,2.563-0.237,3.824-0.858
		c0.605-0.465,1.631-1.283,2.028-1.784c0,0-0.753,0.999-1.857,1.937c-0.386,0.517-0.918,1.362-0.546,1.683
		c0.46,0.397,1.937-0.053,2.831-0.619c0.334-0.364,0.883-0.994,1.147-1.484c0,0-0.315,0.925-0.921,1.651
		c-0.1,0.337-0.115,0.749,0.304,0.93c0.673,0.29,1.423-0.094,2.103-0.721c0.213-0.288,0.507-0.703,0.714-1.071
		c0,0-0.298,0.724-0.598,1.278c-0.045,0.247-0.021,0.519,0.25,0.635c0.375,0.16,1.706-0.254,2.546-1.634L59.011,5.68z"/>
	<path id="XMLID_237_" fill="#00005E" d="M84.095,7.141c-3.205-0.682-8.429-3.15-10.917-4.383c-2.489-1.233-4.109-2.78-6.952-2.576
		c-2.843,0.204-2.902,2.909-2.972,3.673c-0.07,0.764-0.323,1.379-0.666,1.669c-0.178,0.15-0.834,0.193-1.427,0.199l-0.189,5.491
		c0.802,1.505,2.197,1.981,2.587,1.825c0.273-0.11,0.304-0.381,0.264-0.629c-0.288-0.56-0.571-1.291-0.571-1.291
		c0.199,0.373,0.484,0.794,0.691,1.086c0.666,0.642,1.409,1.043,2.087,0.767c0.422-0.172,0.416-0.583,0.323-0.923
		c-0.591-0.74-0.886-1.671-0.886-1.671c0.254,0.496,0.789,1.138,1.116,1.509c0.882,0.585,2.35,1.068,2.818,0.68
		c0.378-0.313-0.136-1.169-0.511-1.695c-1.084-0.962-1.816-1.977-1.816-1.977c0.387,0.509,1.396,1.35,1.99,1.827
		c1.248,0.648,3.21,1.37,3.805,0.941c0.389-0.28,0.013-0.854-0.384-1.296c-1.61-1.032-3.506-2.48-3.943-2.817
		c-0.036-0.027-0.068-0.052-0.095-0.073c0,0,0.034,0.026,0.095,0.073c0.715,0.533,3.268,2.053,4.293,2.658
		c1.492,0.453,3.982,0.668,4.371,0.238c0.282-0.313-0.478-0.834-1.193-1.228c-2.628-1.091-7.113-3.654-7.113-3.654
		c2.235,1.206,6.533,3.02,7.695,3.505c1.837,0.23,4.116,0.096,4.394-0.141c0.187-0.159-0.255-0.531-0.745-0.863
		C76.499,6.2,69.265,2.631,69.265,2.631c1.54,0.605,9.719,4.319,11.078,4.937C82.522,7.707,86.661,7.686,84.095,7.141z"/>
	
		<ellipse id="XMLID_236_" transform="matrix(0.9999 0.0109 -0.0109 0.9999 0.0284 -0.6569)" fill="#00005E" cx="60.129" cy="2.273" rx="1.482" ry="1.411"/>
	<path id="XMLID_235_" fill="#00005E" d="M59.322,24.661c0.267-0.177,0.543-0.358,0.815-0.537c0.067-0.044,0.134-0.088,0.201-0.132
		l0.106-3.074c-0.318-0.129-0.711-0.275-1.148-0.434L59.322,24.661z"/>
	<path id="XMLID_234_" fill="#00005E" d="M60.034,32.86c-0.203-0.201-0.43-0.416-0.664-0.629l0.029,4.589
		c0.166-0.223,0.344-0.437,0.521-0.644L60.034,32.86z"/>
	<path id="XMLID_233_" fill="#00005E" d="M60.099,30.964l0.169-4.911c-0.353,0.218-0.665,0.417-0.933,0.603l0.023,3.588
		C59.598,30.484,59.851,30.727,60.099,30.964z"/>
	<path id="XMLID_232_" fill="#00005E" d="M59.819,37.823c-0.167,0.205-0.303,0.411-0.41,0.613l0.021,3.293l0.14,0.457l0.159-0.454
		l0.136-3.963C59.85,37.787,59.834,37.805,59.819,37.823z"/>
	<path id="XMLID_229_" fill="#00005E" d="M59.398,36.821c0.045-0.06,0.091-0.119,0.137-0.178c-0.131-0.17-0.266-0.336-0.402-0.502
		c-0.153-0.185-0.307-0.369-0.452-0.561c-0.783-1.038-0.436-1.46-0.267-1.929c0.085-0.237,0.583-0.739,1.142-1.248
		c-0.227-0.211-0.465-0.425-0.694-0.625c-0.226,0.211-0.443,0.419-0.64,0.621c-1.355,1.382-0.993,2.077-0.727,2.756
		c0.209,0.532,1.027,1.223,1.713,1.933C59.269,37,59.331,36.911,59.398,36.821z"/>
	<path id="XMLID_213_" fill="#00005E" d="M58.483,25.226c0.336-0.232,0.722-0.489,1.12-0.751c-0.742-0.511-1.515-1.039-2.117-1.48
		c-1.059-0.776,0.332-1.672,1.103-2.061c0.212-0.107,0.533-0.233,0.921-0.373c-0.261-0.095-0.539-0.195-0.83-0.3
		c-0.319-0.115-0.656-0.236-0.996-0.36c-0.179,0.088-0.355,0.177-0.525,0.267c-0.998,0.531-2.118,1.427-1.626,2.639
		c0.382,0.941,1.395,1.473,2.243,1.987C58.013,24.938,58.248,25.081,58.483,25.226z"/>
	<path id="XMLID_206_" fill="#00005E" d="M60.218,37.669c-0.032-0.061-0.067-0.12-0.102-0.179c-0.102,0.107-0.198,0.214-0.285,0.32
		c0.216,0.29,0.408,0.61,0.478,0.959c0.084,0.422-0.083,0.881-0.242,1.27c0.033-0.017,0.086-0.063,0.108-0.085
		c0.039-0.04,0.071-0.085,0.099-0.133c0.281-0.474,0.365-0.941,0.224-1.467C60.434,38.116,60.335,37.887,60.218,37.669z"/>
	<path id="XMLID_169_" fill="#00005E" d="M64.999,14.657c-0.19-0.12-0.065-0.28-0.363-0.607c-0.298-0.327-1.088-0.688-2.086-0.684
		c-0.999,0.004-1.295,0.853-1.196,0.899c0.099,0.045,0.112,0.132,0.112,0.132c-0.242-0.039-0.175,0.249,0.314,0.607
		c0.489,0.358,1.374,0.78,1.635,0.709c0.186-0.05,0.38,0.045,0.5,0.2c0.052,0.066,0.09,0.143,0.109,0.224
		c0.016,0.069,0.018,0.141,0.005,0.21c-0.065,0.338-0.408,0.57-0.658,0.741c-0.366,0.25-0.757,0.456-1.126,0.699
		c-0.379,0.249-1.012,0.538-1.745,0.856l0.506-14.709l0.255,0.003c0.136,0.001,0.248-0.175,0.25-0.346
		c0.001-0.115-0.048-0.254-0.122-0.308c-0.117,0.135-0.26,0.246-0.417,0.337c-0.116,0.068-0.24,0.125-0.373,0.165
		c-0.027,0.008-0.056,0.011-0.084,0.017c-0.138,0.034-0.28,0.058-0.429,0.057c-0.149-0.002-0.291-0.03-0.429-0.066
		c-0.027-0.007-0.056-0.01-0.082-0.019c-0.132-0.042-0.254-0.102-0.369-0.173c-0.155-0.095-0.295-0.209-0.41-0.346
		c-0.075,0.052-0.127,0.191-0.128,0.305c-0.002,0.17,0.107,0.35,0.243,0.351l0.253,0.003l0.092,14.507
		c0.194,0.089,0.397,0.162,0.605,0.257c0.203,0.092,1.655,0.774,2.157,1.032c0.42-0.144,0.839-0.292,1.235-0.441
		c1.745-0.657,2.839-1.895,2.739-2.852C65.893,15.461,65.189,14.777,64.999,14.657z M62.586,14.111
		c-0.159-0.002-0.288-0.069-0.287-0.15c0.001-0.081,0.131-0.146,0.29-0.144c0.159,0.002,0.287,0.069,0.287,0.15
		S62.745,14.113,62.586,14.111z"/>
	<path id="XMLID_165_" fill="#00005E" d="M61.154,25.565c-0.011-0.008-0.022-0.016-0.034-0.025
		c-0.124,0.072-0.247,0.144-0.368,0.217c-0.266,0.16-0.509,0.31-0.735,0.451c1.142,0.777,1.767,1.376,1.792,2.142
		c0.02,0.614-0.878,1.517-1.883,2.448c0.091,0.087,0.181,0.173,0.271,0.259c0.145,0.138,0.29,0.278,0.435,0.418
		c0.162-0.134,0.308-0.25,0.423-0.34c0.69-0.536,1.921-1.773,2.027-2.757C63.187,27.395,62.172,26.311,61.154,25.565z"/>
	<path id="XMLID_134_" fill="#00005E" d="M62.563,20.228c-1.796-1.005-4.168-1.883-5.078-2.511c-0.365-0.251-0.75-0.466-1.112-0.724
		c-0.246-0.176-0.585-0.416-0.642-0.755c-0.012-0.07-0.008-0.141,0.009-0.21c0.021-0.081,0.06-0.157,0.113-0.222
		c0.124-0.153,0.319-0.244,0.504-0.189c0.259,0.076,1.153-0.326,1.649-0.673c0.496-0.347,0.57-0.635,0.327-0.6
		c0,0,0.014-0.087,0.114-0.13c0.1-0.043-0.178-0.899-1.177-0.924c-0.999-0.026-1.796,0.319-2.1,0.639
		c-0.304,0.32-0.183,0.483-0.376,0.599c-0.193,0.116-0.911,0.784-1.031,1.739c-0.12,0.954,0.948,2.216,2.679,2.911
		c1.731,0.695,3.913,1.381,4.675,1.786c0.762,0.405,2.135,1.332,1.059,2.085c-1.075,0.753-2.687,1.764-3.721,2.488
		c-1.034,0.724-2.071,1.786-1.986,2.772c0.086,0.986,1.29,2.249,1.969,2.8c0.679,0.551,2.428,2.1,2.587,2.572
		c0.159,0.472,0.497,0.902-0.307,1.923c-0.056,0.07-0.113,0.14-0.17,0.208c-0.319,0.38-0.653,0.749-0.95,1.147
		c-0.336,0.451-0.627,0.936-0.805,1.464c-0.094,0.279-0.156,0.569-0.178,0.862c-0.012,0.155-0.013,0.31-0.003,0.465
		c0.019,0.294,0.099,0.609,0.244,0.87c0.089,0.159,0.184,0.323,0.194,0.312c0.023-0.024-0.202-0.678-0.239-0.968
		c-0.063-0.483,0.085-1.396,0.811-2.285c0.727-0.889,2.009-1.801,2.29-2.475c0.281-0.673,0.657-1.36-0.669-2.772
		c-1.326-1.411-3.552-3.156-3.501-4.126c0.051-0.97,1.057-1.65,2.875-2.747c0.739-0.446,1.51-0.85,2.233-1.321
		c0.754-0.492,1.461-1.139,1.425-2.079C64.243,21.251,63.302,20.641,62.563,20.228z M57.221,13.739
		c0.159,0.002,0.287,0.069,0.287,0.15c-0.001,0.081-0.131,0.146-0.29,0.144c-0.159-0.002-0.288-0.069-0.287-0.15
		C56.932,13.802,57.062,13.737,57.221,13.739z"/>
	<path id="XMLID_110_" fill="#00005E" d="M40.772,94.878c0.442-0.352,0.766-0.712,1.044-1.051c0.555-0.677,0.934-1.264,1.64-1.545
		c0.204,0.072,0.412,0.123,0.617,0.178c0.205,0.054,0.408,0.108,0.609,0.161c0.103,0.027,0.2,0.053,0.302,0.08l0.521-0.96
		l-0.037-0.118c-0.555-0.142-1.109-0.284-1.694-0.444c-0.356-0.627-0.276-1.308-0.258-2.151c0.01-0.421,0.006-0.882-0.064-1.393
		c-0.035-0.256-0.086-0.524-0.16-0.805c-0.072-0.284-0.172-0.569-0.287-0.897c-0.487-1.362-1.547-1.989-2.474-2.417
		c-0.468-0.2-0.921-0.306-1.252-0.379c-0.325-0.084-0.537-0.111-0.537-0.111c-0.089,0.157-0.187,0.514-0.234,1.012
		c-0.023,0.247-0.036,0.538-0.022,0.843c0.015,0.304,0.051,0.635,0.117,0.985c0.132,0.701,0.383,1.482,0.813,2.283
		c0.443,0.773,1.079,1.536,1.934,2.254c-1.389-0.499-2.822-1.089-4.269-1.77c-0.208-0.5-0.152-0.996-0.038-1.577
		c0.193-0.948,0.493-2.108,0.153-3.755c-0.148-0.675-0.429-1.253-0.8-1.7c-0.185-0.225-0.39-0.42-0.605-0.59
		c-0.107-0.086-0.219-0.162-0.327-0.239c-0.106-0.08-0.213-0.155-0.32-0.224c-0.853-0.549-1.698-0.754-1.698-0.754
		c-0.283,0.358-0.822,1.917-0.494,3.937c0.076,0.514,0.236,1.015,0.457,1.544c0.223,0.526,0.519,1.066,0.9,1.603
		c0.169,0.216,0.358,0.43,0.561,0.642c-0.463-0.248-0.925-0.501-1.386-0.769c-0.866-0.502-1.727-1.042-2.579-1.612
		c-0.146-0.558-0.001-1.061,0.21-1.634c0.168-0.451,0.375-0.945,0.526-1.536c0.159-0.602,0.265-1.304,0.237-2.151
		c-0.012-0.354-0.07-0.678-0.166-0.972c-0.047-0.148-0.106-0.286-0.167-0.423c-0.059-0.14-0.126-0.274-0.199-0.401
		c-0.291-0.508-0.683-0.914-1.083-1.233c-0.392-0.327-0.77-0.593-1.068-0.759c-0.295-0.17-0.495-0.255-0.495-0.255
		c-0.169,0.156-0.446,0.606-0.683,1.273c-0.118,0.334-0.227,0.722-0.306,1.155c-0.076,0.43-0.137,0.922-0.118,1.416
		c0.013,0.501,0.076,1.036,0.208,1.594c0.066,0.279,0.149,0.565,0.251,0.854c0.098,0.294,0.24,0.564,0.39,0.852
		c0.153,0.281,0.325,0.565,0.521,0.849c-1.073-0.8-2.123-1.65-3.131-2.554c-0.167-0.149-0.325-0.307-0.489-0.458
		c-0.014-0.135-0.015-0.265-0.003-0.389c0.045-0.427,0.235-0.814,0.472-1.239c0.238-0.424,0.522-0.886,0.763-1.453
		c0.243-0.567,0.435-1.23,0.547-2.089c0.088-0.713-0.032-1.332-0.267-1.863c-0.225-0.539-0.541-1.015-0.89-1.393
		c-0.173-0.19-0.35-0.359-0.52-0.505c-0.169-0.147-0.316-0.283-0.451-0.388c-0.266-0.213-0.452-0.327-0.452-0.327
		c-0.19,0.133-0.529,0.547-0.862,1.182c-0.165,0.317-0.334,0.694-0.471,1.112c-0.132,0.414-0.24,0.876-0.304,1.379
		c-0.064,0.503-0.084,1.046-0.041,1.622c0.017,0.292,0.069,0.575,0.134,0.87c0.066,0.294,0.15,0.594,0.256,0.899
		c0.105,0.305,0.231,0.615,0.379,0.928c0.004,0.007,0.007,0.015,0.011,0.022c-1.102-1.11-2.152-2.267-3.141-3.46
		c-0.001-0.149,0.009-0.292,0.041-0.427c0.109-0.419,0.355-0.78,0.652-1.172c0.598-0.779,1.39-1.702,1.792-3.351
		c0.178-0.695,0.157-1.341-0.001-1.906c-0.078-0.284-0.187-0.549-0.316-0.796c-0.12-0.253-0.254-0.49-0.399-0.704
		c-0.288-0.429-0.607-0.774-0.855-1.014c-0.127-0.118-0.229-0.213-0.3-0.279c-0.073-0.064-0.113-0.1-0.113-0.1
		c-0.202,0.107-0.606,0.489-1.005,1.074c-0.403,0.588-0.822,1.396-1.091,2.387c-0.287,1.001-0.346,2.138-0.117,3.416
		c0.03,0.159,0.062,0.321,0.103,0.482c0.046,0.158,0.097,0.318,0.153,0.48c0.018,0.05,0.039,0.101,0.058,0.152
		c-0.969-1.273-1.866-2.572-2.696-3.877c0.062-0.645,0.421-1.087,0.893-1.572c0.172-0.175,0.353-0.36,0.546-0.557
		c0.194-0.201,0.393-0.42,0.589-0.668c0.393-0.495,0.775-1.107,1.088-1.91c0.131-0.336,0.204-0.663,0.233-0.977
		c0.025-0.313,0.03-0.629-0.012-0.922c-0.077-0.591-0.29-1.126-0.541-1.581c-0.461-0.929-1.084-1.547-1.084-1.547
		c-0.431,0.174-1.725,1.312-2.508,3.229c-0.184,0.474-0.336,0.996-0.434,1.563c-0.049,0.284-0.085,0.578-0.105,0.883
		c-0.01,0.152-0.016,0.308-0.018,0.465c0.004,0.155,0.012,0.312,0.025,0.471c0.034,0.413,0.103,0.843,0.205,1.285
		c-0.329-0.562-0.652-1.124-0.956-1.683c-0.465-0.857-0.892-1.709-1.293-2.55c0.04-0.201,0.1-0.383,0.187-0.545
		c0.207-0.381,0.533-0.676,0.918-0.99c0.385-0.314,0.827-0.646,1.269-1.095c0.442-0.448,0.877-1.009,1.297-1.785
		c0.346-0.647,0.46-1.282,0.434-1.876c-0.019-0.294-0.045-0.59-0.107-0.865c-0.059-0.277-0.142-0.539-0.237-0.782
		c-0.185-0.487-0.439-0.891-0.607-1.189c-0.177-0.295-0.312-0.467-0.312-0.467c-0.444,0.129-1.888,1.147-2.845,2.965
		c-0.243,0.456-0.46,0.963-0.629,1.52c-0.164,0.555-0.256,1.15-0.291,1.795c-0.021,0.444-0.012,0.913,0.048,1.394
		c-0.436-1.002-0.836-1.981-1.202-2.923c-0.192-0.533-0.382-1.051-0.563-1.557c0.184-0.691,0.662-1.065,1.281-1.469
		c0.84-0.545,1.914-1.161,2.873-2.618c0.391-0.605,0.6-1.237,0.643-1.835c0.024-0.3,0.012-0.592-0.025-0.873
		c-0.018-0.14-0.043-0.278-0.073-0.411c-0.026-0.134-0.053-0.266-0.085-0.393c-0.256-1.012-0.743-1.744-0.743-1.744
		c-0.463,0.088-1.958,0.958-3.143,2.687c-0.304,0.434-0.548,0.913-0.77,1.449c-0.217,0.535-0.392,1.124-0.504,1.764
		c-0.074,0.488-0.1,1.004-0.081,1.547c-0.147-0.469-0.29-0.925-0.428-1.362c-0.132-0.488-0.259-0.955-0.38-1.4
		c-0.119-0.446-0.24-0.868-0.34-1.27c-0.055-0.242-0.108-0.473-0.159-0.698c0.259-0.713,0.789-1.047,1.456-1.399
		c0.891-0.463,1.996-0.969,3.132-2.339c0.473-0.571,0.711-1.177,0.812-1.769c0.12-0.596,0.095-1.178,0.006-1.694
		c-0.044-0.258-0.104-0.499-0.169-0.716c-0.058-0.218-0.118-0.412-0.176-0.574c-0.115-0.324-0.213-0.519-0.213-0.519
		c-0.235,0.022-0.749,0.218-1.378,0.609c-0.314,0.196-0.657,0.44-1.008,0.737c-0.341,0.296-0.686,0.643-1.017,1.046
		c-0.656,0.804-1.284,1.835-1.595,3.082c-0.082,0.312-0.149,0.638-0.2,0.978c-0.033,0.233-0.057,0.474-0.07,0.719
		c-0.002-0.009-0.004-0.019-0.006-0.028c-0.026-0.139-0.051-0.272-0.074-0.398c-0.112-0.603-0.194-1.04-0.241-1.294
		c-0.057-1.198,0.362-2.075,0.76-3.005c0.108-0.251,0.216-0.506,0.316-0.775c0.103-0.269,0.21-0.551,0.294-0.854
		c0.176-0.606,0.276-1.295,0.273-2.138c0.016-0.723-0.141-1.396-0.392-2.008c-0.063-0.153-0.132-0.302-0.205-0.447
		c-0.069-0.145-0.14-0.286-0.217-0.422c-0.152-0.273-0.319-0.527-0.491-0.76c-0.688-0.931-1.457-1.526-1.689-1.525
		c-0.233,0-0.967,0.59-1.611,1.591c-0.161,0.25-0.316,0.525-0.457,0.822c-0.07,0.149-0.138,0.302-0.197,0.461
		c-0.056,0.159-0.106,0.322-0.15,0.49c-0.177,0.671-0.255,1.413-0.161,2.184c0.14,0.955,0.397,1.692,0.686,2.3
		c0.283,0.609,0.646,1.084,0.996,1.524c0.668,0.832,1.288,1.54,1.667,2.734c0.047,0.266,0.119,0.679,0.217,1.234
		c0.022,0.127,0.046,0.262,0.071,0.403c0.011,0.053,0.024,0.111,0.036,0.166c-0.13-0.274-0.255-0.542-0.395-0.795
		c-0.167-0.307-0.346-0.599-0.535-0.875c-0.772-1.102-1.612-1.982-2.488-2.661c-0.435-0.34-0.87-0.63-1.285-0.874
		c-0.405-0.245-0.791-0.443-1.141-0.597c-0.698-0.308-1.245-0.437-1.48-0.416c0,0-0.055,0.247-0.097,0.651
		C0.024,43.987,0.004,44.228,0,44.497c0.003,0.268,0.018,0.564,0.053,0.875c0.071,0.623,0.223,1.309,0.517,1.957
		c0.314,0.645,0.778,1.25,1.436,1.711c1.564,1.099,2.839,1.154,3.851,1.276c0.794,0.091,1.441,0.219,1.996,0.828
		c0.045,0.207,0.091,0.42,0.139,0.642c0.098,0.408,0.215,0.836,0.331,1.289c0.118,0.452,0.241,0.926,0.37,1.421
		c0.148,0.487,0.301,0.994,0.461,1.519c-0.321-0.531-0.677-1.013-1.045-1.449c-0.419-0.518-0.872-0.974-1.338-1.375
		c-0.461-0.402-0.957-0.745-1.408-1.047c-1.838-1.202-3.618-1.613-4.081-1.525c0,0-0.1,1.004,0.144,2.24
		c0.031,0.154,0.065,0.312,0.11,0.472c0.048,0.159,0.102,0.319,0.164,0.479c0.123,0.321,0.274,0.643,0.46,0.951
		c0.376,0.616,0.866,1.184,1.59,1.579c1.703,0.943,2.95,0.885,3.968,0.912c0.767,0.018,1.411,0.076,2.023,0.581
		c0.175,0.506,0.36,1.021,0.544,1.553c0.381,1.008,0.8,2.058,1.26,3.134c-0.364-0.46-0.727-0.883-1.114-1.259
		c-0.481-0.473-0.998-0.876-1.501-1.232c-0.496-0.358-1.001-0.66-1.497-0.914c-1.998-1.012-3.766-1.269-4.225-1.135
		c0,0-0.003,0.254,0.037,0.66c0.031,0.409,0.152,0.96,0.345,1.564c0.099,0.301,0.221,0.615,0.371,0.926
		c0.153,0.31,0.321,0.622,0.551,0.909c0.448,0.578,1.026,1.09,1.768,1.42c0.878,0.397,1.65,0.538,2.314,0.579
		c0.665,0.04,1.23-0.022,1.739-0.062c0.509-0.04,0.962-0.058,1.398,0.063c0.208,0.058,0.412,0.15,0.617,0.283
		c0.397,0.855,0.822,1.721,1.283,2.593c0.316,0.593,0.649,1.189,0.993,1.786c-0.37-0.372-0.753-0.706-1.146-1.005
		c-0.136-0.104-0.274-0.203-0.412-0.298c-0.132-0.098-0.265-0.192-0.399-0.283c-0.268-0.181-0.538-0.346-0.809-0.497
		c-0.542-0.303-1.085-0.549-1.614-0.75c-2.066-0.821-3.886-0.894-4.324-0.717c0,0,0.114,1.014,0.625,2.189
		c0.276,0.579,0.652,1.197,1.15,1.735c0.253,0.268,0.521,0.522,0.849,0.73c0.326,0.209,0.684,0.384,1.076,0.509
		c0.938,0.298,1.706,0.366,2.365,0.339c0.33-0.013,0.632-0.05,0.914-0.095c0.286-0.047,0.551-0.102,0.803-0.149
		c0.724-0.138,1.34-0.21,2.006,0.096c0.851,1.364,1.773,2.723,2.774,4.055c-0.101-0.076-0.202-0.152-0.303-0.223
		c-0.148-0.104-0.297-0.203-0.447-0.297c-0.145-0.098-0.288-0.193-0.433-0.282c-1.151-0.722-2.373-1.158-3.436-1.463
		c-1.08-0.295-2.082-0.411-2.864-0.426c-0.787-0.013-1.328,0.067-1.538,0.178c0,0,0.016,0.063,0.044,0.175
		c0.028,0.113,0.082,0.272,0.155,0.466c0.147,0.388,0.379,0.917,0.712,1.474c0.167,0.278,0.357,0.565,0.579,0.841
		c0.232,0.271,0.492,0.534,0.779,0.773c0.577,0.478,1.254,0.868,2.066,1.031c1.961,0.37,3.115-0.083,4.085-0.381
		c0.483-0.151,0.917-0.269,1.367-0.246c0.188,0.006,0.383,0.043,0.584,0.101c1.027,1.259,2.119,2.481,3.272,3.652
		c-0.005-0.003-0.01-0.005-0.014-0.008c-0.079-0.046-0.157-0.091-0.235-0.135c-0.314-0.176-0.629-0.332-0.945-0.472
		c-0.315-0.14-0.631-0.262-0.945-0.37c-0.313-0.108-0.63-0.197-0.925-0.288c-0.598-0.175-1.186-0.295-1.747-0.375
		c-0.561-0.079-1.097-0.117-1.59-0.126c-0.487-0.012-0.925,0-1.311,0.035c-0.77,0.069-1.313,0.219-1.503,0.352
		c0,0,0.091,0.244,0.28,0.621c0.097,0.187,0.209,0.413,0.364,0.648c0.155,0.234,0.338,0.487,0.546,0.743
		c0.42,0.51,0.932,1.047,1.57,1.458c0.649,0.404,1.394,0.7,2.22,0.767c0.978,0.086,1.761-0.047,2.398-0.234
		c0.638-0.189,1.141-0.442,1.601-0.655c0.459-0.213,0.874-0.387,1.326-0.426c0.167-0.015,0.339-0.003,0.518,0.024
		c0.171,0.159,0.335,0.327,0.509,0.483c1.014,0.922,2.069,1.792,3.149,2.613c-0.363-0.138-0.723-0.257-1.082-0.354
		c-0.334-0.095-0.678-0.16-0.994-0.236c-0.32-0.072-0.637-0.13-0.949-0.174c-0.624-0.089-1.23-0.127-1.803-0.129
		c-0.58,0.004-1.096,0.016-1.583,0.067c-0.484,0.048-0.923,0.121-1.302,0.205c-0.759,0.169-1.279,0.387-1.448,0.544
		c0,0,0.129,0.23,0.378,0.578c0.253,0.345,0.611,0.823,1.103,1.281c0.5,0.451,1.11,0.904,1.8,1.237
		c0.173,0.083,0.35,0.159,0.532,0.226c0.185,0.064,0.38,0.112,0.575,0.153c0.393,0.08,0.8,0.114,1.218,0.089
		c0.998-0.06,1.736-0.278,2.332-0.544c0.605-0.277,1.066-0.601,1.488-0.877c0.549-0.361,1.04-0.639,1.674-0.667
		c0.889,0.606,1.788,1.18,2.695,1.712c0.478,0.281,0.957,0.548,1.436,0.808c-0.358-0.07-0.711-0.123-1.059-0.161
		c-0.682-0.105-1.345-0.144-1.982-0.137c-0.634,0.005-1.253,0.071-1.806,0.129c-2.237,0.268-3.896,1.062-4.179,1.42
		c0,0,0.674,0.833,1.788,1.628c0.139,0.099,0.285,0.197,0.436,0.293c0.154,0.092,0.319,0.176,0.487,0.258
		c0.337,0.163,0.696,0.308,1.069,0.42c0.748,0.223,1.545,0.329,2.379,0.139c1.966-0.429,2.802-1.305,3.545-1.962
		c0.471-0.424,0.904-0.773,1.514-0.909c1.496,0.717,2.98,1.339,4.414,1.869c-1.163-0.076-2.253,0.029-3.248,0.224
		c-0.978,0.16-1.868,0.425-2.632,0.724c-0.382,0.15-0.732,0.308-1.046,0.465c-0.313,0.158-0.582,0.302-0.813,0.447
		c-0.461,0.287-0.756,0.545-0.846,0.704c0,0,0.196,0.189,0.545,0.461c0.355,0.262,0.876,0.585,1.498,0.888
		c1.228,0.634,2.955,1.008,4.507,0.454c0.373-0.129,0.707-0.301,0.997-0.466C40.3,95.228,40.55,95.054,40.772,94.878z"/>
	<path id="XMLID_107_" fill="#00005E" d="M79.228,94.878c-0.442-0.352-0.766-0.712-1.044-1.051c-0.555-0.677-0.934-1.264-1.64-1.545
		c-0.204,0.072-0.412,0.123-0.617,0.178c-0.205,0.054-0.408,0.108-0.609,0.161c-0.103,0.027-0.2,0.053-0.302,0.08l-0.521-0.96
		l0.037-0.118c0.555-0.142,1.109-0.284,1.694-0.444c0.356-0.627,0.276-1.308,0.258-2.151c-0.01-0.421-0.006-0.882,0.064-1.393
		c0.035-0.256,0.086-0.524,0.16-0.805c0.072-0.284,0.172-0.569,0.287-0.897c0.487-1.362,1.547-1.989,2.474-2.417
		c0.468-0.2,0.921-0.306,1.252-0.379c0.325-0.084,0.537-0.111,0.537-0.111c0.089,0.157,0.187,0.514,0.234,1.012
		c0.023,0.247,0.036,0.538,0.022,0.843c-0.015,0.304-0.051,0.635-0.117,0.985c-0.132,0.701-0.383,1.482-0.813,2.283
		c-0.443,0.773-1.079,1.536-1.934,2.254c1.389-0.499,2.822-1.089,4.269-1.77c0.208-0.5,0.152-0.996,0.038-1.577
		c-0.193-0.948-0.493-2.108-0.153-3.755c0.148-0.675,0.429-1.253,0.8-1.7c0.185-0.225,0.39-0.42,0.605-0.59
		c0.107-0.086,0.219-0.162,0.327-0.239c0.106-0.08,0.213-0.155,0.32-0.224c0.853-0.549,1.698-0.754,1.698-0.754
		c0.283,0.358,0.822,1.917,0.494,3.937c-0.076,0.514-0.236,1.015-0.457,1.544c-0.223,0.526-0.519,1.066-0.9,1.603
		c-0.169,0.216-0.358,0.43-0.561,0.642c0.463-0.248,0.925-0.501,1.386-0.769c0.866-0.502,1.727-1.042,2.579-1.612
		c0.146-0.558,0.001-1.061-0.21-1.634c-0.168-0.451-0.375-0.945-0.526-1.536c-0.159-0.602-0.265-1.304-0.237-2.151
		c0.012-0.354,0.07-0.678,0.166-0.972c0.047-0.148,0.106-0.286,0.167-0.423c0.059-0.14,0.126-0.274,0.199-0.401
		c0.291-0.508,0.683-0.914,1.083-1.233c0.392-0.327,0.77-0.593,1.068-0.759c0.295-0.17,0.495-0.255,0.495-0.255
		c0.169,0.156,0.446,0.606,0.683,1.273c0.118,0.334,0.227,0.722,0.306,1.155c0.076,0.43,0.137,0.922,0.118,1.416
		c-0.013,0.501-0.076,1.036-0.208,1.594c-0.066,0.279-0.149,0.565-0.251,0.854c-0.098,0.294-0.24,0.564-0.39,0.852
		c-0.153,0.281-0.325,0.565-0.521,0.849c1.073-0.8,2.123-1.65,3.131-2.554c0.167-0.149,0.325-0.307,0.489-0.458
		c0.014-0.135,0.015-0.265,0.003-0.389c-0.045-0.427-0.235-0.814-0.472-1.239c-0.238-0.424-0.522-0.886-0.763-1.453
		c-0.243-0.567-0.435-1.23-0.547-2.089c-0.088-0.713,0.032-1.332,0.267-1.863c0.225-0.539,0.541-1.015,0.89-1.393
		c0.173-0.19,0.35-0.359,0.52-0.505c0.169-0.147,0.316-0.283,0.451-0.388c0.266-0.213,0.452-0.327,0.452-0.327
		c0.19,0.133,0.529,0.547,0.862,1.182c0.165,0.317,0.334,0.694,0.471,1.112c0.132,0.414,0.24,0.876,0.304,1.379
		c0.064,0.503,0.084,1.046,0.041,1.622c-0.017,0.292-0.069,0.575-0.134,0.87c-0.066,0.294-0.15,0.594-0.256,0.899
		c-0.105,0.305-0.231,0.615-0.379,0.928c-0.004,0.007-0.007,0.015-0.011,0.022c1.102-1.11,2.152-2.267,3.141-3.46
		c0.001-0.149-0.009-0.292-0.041-0.427c-0.109-0.419-0.355-0.78-0.652-1.172c-0.598-0.779-1.39-1.702-1.792-3.351
		c-0.178-0.695-0.157-1.341,0.001-1.906c0.078-0.284,0.187-0.549,0.316-0.796c0.12-0.253,0.254-0.49,0.399-0.704
		c0.288-0.429,0.607-0.774,0.855-1.014c0.127-0.118,0.229-0.213,0.3-0.279c0.073-0.064,0.113-0.1,0.113-0.1
		c0.202,0.107,0.606,0.489,1.005,1.074c0.403,0.588,0.822,1.396,1.091,2.387c0.287,1.001,0.346,2.138,0.117,3.416
		c-0.03,0.159-0.062,0.321-0.103,0.482c-0.046,0.158-0.097,0.318-0.153,0.48c-0.018,0.05-0.039,0.101-0.058,0.152
		c0.969-1.273,1.866-2.572,2.696-3.877c-0.062-0.645-0.421-1.087-0.893-1.572c-0.172-0.175-0.353-0.36-0.546-0.557
		c-0.194-0.201-0.393-0.42-0.589-0.668c-0.393-0.495-0.775-1.107-1.088-1.91c-0.131-0.336-0.204-0.663-0.233-0.977
		c-0.025-0.313-0.03-0.629,0.012-0.922c0.077-0.591,0.29-1.126,0.541-1.581c0.461-0.929,1.084-1.547,1.084-1.547
		c0.431,0.174,1.725,1.312,2.508,3.229c0.184,0.474,0.336,0.996,0.434,1.563c0.049,0.284,0.085,0.578,0.105,0.883
		c0.01,0.152,0.016,0.308,0.018,0.465c-0.004,0.155-0.012,0.312-0.025,0.471c-0.034,0.413-0.103,0.843-0.205,1.285
		c0.329-0.562,0.652-1.124,0.956-1.683c0.465-0.857,0.892-1.709,1.293-2.55c-0.04-0.201-0.1-0.383-0.187-0.545
		c-0.207-0.381-0.533-0.676-0.918-0.99c-0.385-0.314-0.827-0.646-1.269-1.095c-0.442-0.448-0.877-1.009-1.297-1.785
		c-0.346-0.647-0.46-1.282-0.434-1.876c0.019-0.294,0.045-0.59,0.107-0.865c0.059-0.277,0.142-0.539,0.237-0.782
		c0.185-0.487,0.439-0.891,0.607-1.189c0.177-0.295,0.312-0.467,0.312-0.467c0.444,0.129,1.888,1.147,2.845,2.965
		c0.243,0.456,0.46,0.963,0.629,1.52c0.164,0.555,0.256,1.15,0.291,1.795c0.021,0.444,0.012,0.913-0.048,1.394
		c0.436-1.002,0.836-1.981,1.202-2.923c0.192-0.533,0.382-1.051,0.563-1.557c-0.184-0.691-0.662-1.065-1.281-1.469
		c-0.84-0.545-1.914-1.161-2.873-2.618c-0.391-0.605-0.6-1.237-0.643-1.835c-0.024-0.3-0.012-0.592,0.025-0.873
		c0.018-0.14,0.043-0.278,0.073-0.411c0.026-0.134,0.053-0.266,0.085-0.393c0.256-1.012,0.743-1.744,0.743-1.744
		c0.463,0.088,1.958,0.958,3.143,2.687c0.304,0.434,0.548,0.913,0.77,1.449c0.217,0.535,0.392,1.124,0.504,1.764
		c0.074,0.488,0.1,1.004,0.081,1.547c0.147-0.469,0.29-0.925,0.428-1.362c0.132-0.488,0.259-0.955,0.38-1.4
		c0.119-0.446,0.24-0.868,0.34-1.27c0.055-0.242,0.108-0.473,0.159-0.698c-0.259-0.713-0.789-1.047-1.456-1.399
		c-0.891-0.463-1.996-0.969-3.132-2.339c-0.473-0.571-0.711-1.177-0.812-1.769c-0.12-0.596-0.095-1.178-0.006-1.694
		c0.044-0.258,0.104-0.499,0.169-0.716c0.058-0.218,0.118-0.412,0.176-0.574c0.115-0.324,0.213-0.519,0.213-0.519
		c0.235,0.022,0.749,0.218,1.378,0.609c0.314,0.196,0.657,0.44,1.008,0.737c0.341,0.296,0.686,0.643,1.017,1.046
		c0.656,0.804,1.284,1.835,1.595,3.082c0.082,0.312,0.149,0.638,0.2,0.978c0.033,0.233,0.057,0.474,0.07,0.719
		c0.002-0.009,0.004-0.019,0.006-0.028c0.026-0.139,0.051-0.272,0.074-0.398c0.112-0.603,0.194-1.04,0.241-1.294
		c0.057-1.198-0.362-2.075-0.76-3.005c-0.108-0.251-0.216-0.506-0.316-0.775c-0.103-0.269-0.21-0.551-0.294-0.854
		c-0.176-0.606-0.276-1.295-0.273-2.138c-0.016-0.723,0.141-1.396,0.392-2.008c0.063-0.153,0.132-0.302,0.205-0.447
		c0.069-0.145,0.14-0.286,0.217-0.422c0.152-0.273,0.319-0.527,0.491-0.76c0.688-0.931,1.457-1.526,1.689-1.525
		c0.233,0,0.967,0.59,1.611,1.591c0.161,0.25,0.316,0.525,0.457,0.822c0.07,0.149,0.138,0.302,0.197,0.461
		c0.056,0.159,0.106,0.322,0.15,0.49c0.177,0.671,0.255,1.413,0.161,2.184c-0.14,0.955-0.397,1.692-0.686,2.3
		c-0.283,0.609-0.646,1.084-0.996,1.524c-0.668,0.832-1.288,1.54-1.667,2.734c-0.047,0.266-0.119,0.679-0.217,1.234
		c-0.022,0.127-0.046,0.262-0.071,0.403c-0.011,0.053-0.024,0.111-0.036,0.166c0.13-0.274,0.255-0.542,0.395-0.795
		c0.167-0.307,0.346-0.599,0.535-0.875c0.772-1.102,1.612-1.982,2.488-2.661c0.435-0.34,0.87-0.63,1.285-0.874
		c0.405-0.245,0.791-0.443,1.141-0.597c0.698-0.308,1.245-0.437,1.48-0.416c0,0,0.055,0.247,0.097,0.651
		c0.021,0.202,0.041,0.443,0.045,0.712c-0.003,0.268-0.018,0.564-0.053,0.875c-0.071,0.623-0.223,1.309-0.517,1.957
		c-0.314,0.645-0.778,1.25-1.436,1.711c-1.564,1.099-2.839,1.154-3.851,1.276c-0.794,0.091-1.441,0.219-1.996,0.828
		c-0.045,0.207-0.091,0.42-0.139,0.642c-0.098,0.408-0.215,0.836-0.331,1.289c-0.118,0.452-0.241,0.926-0.37,1.421
		c-0.148,0.487-0.301,0.994-0.461,1.519c0.321-0.531,0.677-1.013,1.045-1.449c0.419-0.518,0.872-0.974,1.338-1.375
		c0.461-0.402,0.957-0.745,1.409-1.047c1.838-1.202,3.618-1.613,4.081-1.525c0,0,0.1,1.004-0.144,2.24
		c-0.031,0.154-0.065,0.312-0.11,0.472c-0.048,0.159-0.102,0.319-0.164,0.479c-0.123,0.321-0.274,0.643-0.46,0.951
		c-0.376,0.616-0.866,1.184-1.59,1.579c-1.703,0.943-2.95,0.885-3.968,0.912c-0.767,0.018-1.411,0.076-2.023,0.581
		c-0.175,0.506-0.36,1.021-0.544,1.553c-0.381,1.008-0.8,2.058-1.26,3.134c0.364-0.46,0.727-0.883,1.114-1.259
		c0.481-0.473,0.998-0.876,1.501-1.232c0.496-0.358,1.001-0.66,1.497-0.914c1.998-1.012,3.766-1.269,4.225-1.135
		c0,0,0.003,0.254-0.037,0.66c-0.031,0.409-0.152,0.96-0.345,1.564c-0.099,0.301-0.221,0.615-0.371,0.926
		c-0.153,0.31-0.321,0.622-0.551,0.909c-0.448,0.578-1.026,1.09-1.768,1.42c-0.878,0.397-1.65,0.538-2.314,0.579
		c-0.665,0.04-1.23-0.022-1.739-0.062c-0.509-0.04-0.962-0.058-1.398,0.063c-0.208,0.058-0.412,0.15-0.617,0.283
		c-0.397,0.855-0.822,1.721-1.283,2.593c-0.316,0.593-0.649,1.189-0.993,1.786c0.37-0.372,0.753-0.706,1.146-1.005
		c0.136-0.104,0.274-0.203,0.412-0.298c0.132-0.098,0.265-0.192,0.399-0.283c0.268-0.181,0.538-0.346,0.809-0.497
		c0.542-0.303,1.085-0.549,1.614-0.75c2.066-0.821,3.886-0.894,4.324-0.717c0,0-0.114,1.014-0.625,2.189
		c-0.276,0.579-0.652,1.197-1.15,1.735c-0.253,0.268-0.521,0.522-0.849,0.73c-0.326,0.209-0.684,0.384-1.076,0.509
		c-0.938,0.298-1.706,0.366-2.365,0.339c-0.33-0.013-0.632-0.05-0.914-0.095c-0.286-0.047-0.551-0.102-0.803-0.149
		c-0.724-0.138-1.34-0.21-2.006,0.096c-0.851,1.364-1.773,2.723-2.774,4.055c0.101-0.076,0.202-0.152,0.303-0.223
		c0.148-0.104,0.297-0.203,0.447-0.297c0.145-0.098,0.288-0.193,0.433-0.282c1.151-0.722,2.373-1.158,3.436-1.463
		c1.08-0.295,2.082-0.411,2.864-0.426c0.787-0.013,1.328,0.067,1.538,0.178c0,0-0.016,0.063-0.044,0.175
		c-0.028,0.113-0.082,0.272-0.155,0.466c-0.147,0.388-0.379,0.917-0.712,1.474c-0.167,0.278-0.357,0.565-0.579,0.841
		c-0.232,0.271-0.492,0.534-0.779,0.773c-0.577,0.478-1.254,0.868-2.066,1.031c-1.961,0.37-3.115-0.083-4.085-0.381
		c-0.483-0.151-0.917-0.269-1.367-0.246c-0.188,0.006-0.383,0.043-0.584,0.101c-1.027,1.259-2.119,2.481-3.272,3.652
		c0.005-0.003,0.01-0.005,0.014-0.008c0.079-0.046,0.157-0.091,0.235-0.135c0.314-0.176,0.629-0.332,0.945-0.472
		c0.315-0.14,0.631-0.262,0.945-0.37c0.313-0.108,0.63-0.197,0.925-0.288c0.598-0.175,1.186-0.295,1.747-0.375
		c0.561-0.079,1.097-0.117,1.59-0.126c0.487-0.012,0.925,0,1.311,0.035c0.77,0.069,1.313,0.219,1.503,0.352
		c0,0-0.091,0.244-0.28,0.621c-0.097,0.187-0.209,0.413-0.364,0.648c-0.155,0.234-0.338,0.487-0.546,0.743
		c-0.42,0.51-0.932,1.047-1.57,1.458c-0.649,0.404-1.394,0.7-2.22,0.767c-0.978,0.086-1.761-0.047-2.398-0.234
		c-0.638-0.189-1.141-0.442-1.601-0.655c-0.459-0.213-0.874-0.387-1.326-0.426c-0.167-0.015-0.339-0.003-0.518,0.024
		c-0.171,0.159-0.335,0.327-0.509,0.483c-1.014,0.922-2.069,1.792-3.149,2.613c0.363-0.138,0.723-0.257,1.082-0.354
		c0.334-0.095,0.678-0.16,0.994-0.236c0.32-0.072,0.637-0.13,0.949-0.174c0.624-0.089,1.23-0.127,1.803-0.129
		c0.58,0.004,1.096,0.016,1.583,0.067c0.484,0.048,0.923,0.121,1.302,0.205c0.759,0.169,1.279,0.387,1.448,0.544
		c0,0-0.129,0.23-0.378,0.578c-0.253,0.345-0.611,0.823-1.103,1.281c-0.5,0.451-1.11,0.904-1.8,1.237
		c-0.173,0.083-0.35,0.159-0.532,0.226c-0.185,0.064-0.38,0.112-0.575,0.153c-0.393,0.08-0.8,0.114-1.218,0.089
		c-0.998-0.06-1.736-0.278-2.332-0.544c-0.605-0.277-1.066-0.601-1.488-0.877c-0.549-0.361-1.04-0.639-1.674-0.667
		c-0.889,0.606-1.788,1.18-2.695,1.712c-0.478,0.281-0.957,0.548-1.436,0.808c0.358-0.07,0.711-0.123,1.059-0.161
		c0.682-0.105,1.345-0.144,1.982-0.137c0.634,0.005,1.253,0.071,1.806,0.129c2.237,0.268,3.896,1.062,4.179,1.42
		c0,0-0.674,0.833-1.788,1.628c-0.139,0.099-0.285,0.197-0.436,0.293c-0.154,0.092-0.319,0.176-0.487,0.258
		c-0.337,0.163-0.696,0.308-1.069,0.42c-0.748,0.223-1.545,0.329-2.379,0.139c-1.966-0.429-2.802-1.305-3.545-1.962
		c-0.471-0.424-0.904-0.773-1.514-0.909c-1.496,0.717-2.98,1.339-4.414,1.869c1.163-0.076,2.253,0.029,3.248,0.224
		c0.978,0.16,1.868,0.425,2.632,0.724c0.382,0.15,0.732,0.308,1.046,0.465c0.313,0.158,0.582,0.302,0.813,0.447
		c0.461,0.287,0.756,0.545,0.846,0.704c0,0-0.196,0.189-0.545,0.461c-0.355,0.262-0.876,0.585-1.498,0.888
		c-1.228,0.634-2.956,1.008-4.507,0.454c-0.373-0.129-0.707-0.301-0.997-0.466C79.7,95.228,79.45,95.054,79.228,94.878z"/>
	<g id="XMLID_37_">
		<path id="XMLID_38_" fill="#00005E" d="M25.87,44.242h-3.312v-0.521c0.143-0.091,0.297-0.171,0.463-0.24
			c0.165-0.068,0.328-0.121,0.489-0.157l3.459-8.844h0.992l3.365,8.844c0.179,0.037,0.357,0.089,0.536,0.157
			c0.179,0.069,0.335,0.149,0.469,0.24v0.521h-4.197v-0.521c0.169-0.083,0.353-0.16,0.55-0.233c0.197-0.073,0.384-0.127,0.563-0.164
			l-0.778-2.181h-2.976l-0.791,2.181c0.411,0.055,0.8,0.187,1.166,0.397V44.242z M25.816,40.252h2.373l-0.871-2.619l-0.254-1.18
			h-0.027l-0.295,1.207L25.816,40.252z"/>
		<path id="XMLID_42_" fill="#00005E" d="M38.271,44.242h-4.062v-0.521c0.152-0.083,0.328-0.16,0.529-0.233
			c0.201-0.073,0.391-0.127,0.57-0.164v-7.761c-0.214-0.036-0.42-0.091-0.616-0.165c-0.197-0.073-0.358-0.151-0.483-0.233v-0.521
			h4.062v0.521c-0.134,0.091-0.284,0.174-0.449,0.247c-0.166,0.073-0.333,0.124-0.503,0.151v3.318h3.553v-3.318
			c-0.197-0.036-0.373-0.091-0.529-0.165c-0.157-0.073-0.297-0.151-0.422-0.233v-0.521h4.062v0.521
			c-0.152,0.101-0.326,0.183-0.523,0.247c-0.197,0.064-0.389,0.115-0.576,0.151v7.761c0.205,0.037,0.404,0.091,0.596,0.164
			c0.192,0.074,0.36,0.151,0.503,0.233v0.521h-4.062v-0.521c0.134-0.083,0.281-0.16,0.442-0.233
			c0.161-0.073,0.331-0.127,0.509-0.164v-3.552H37.32v3.552c0.179,0.037,0.344,0.087,0.496,0.15
			c0.152,0.064,0.304,0.146,0.455,0.247V44.242z"/>
		<path id="XMLID_44_" fill="#00005E" d="M46.383,39.443c0-0.713,0.098-1.373,0.295-1.981s0.487-1.134,0.871-1.577
			c0.384-0.443,0.858-0.789,1.421-1.035c0.563-0.247,1.211-0.37,1.944-0.37c0.733,0,1.381,0.123,1.944,0.37
			c0.563,0.247,1.034,0.592,1.414,1.035s0.668,0.969,0.865,1.577c0.196,0.608,0.295,1.268,0.295,1.981
			c0,0.713-0.098,1.374-0.295,1.981c-0.197,0.608-0.485,1.134-0.865,1.577s-0.851,0.788-1.414,1.035
			c-0.563,0.247-1.211,0.37-1.944,0.37c-0.733,0-1.381-0.124-1.944-0.37c-0.563-0.247-1.037-0.592-1.421-1.035
			c-0.384-0.443-0.675-0.969-0.871-1.577S46.383,40.156,46.383,39.443z M48.662,39.443c0,0.585,0.045,1.127,0.134,1.625
			c0.089,0.499,0.23,0.928,0.423,1.289c0.192,0.361,0.438,0.645,0.737,0.85c0.299,0.206,0.659,0.309,1.079,0.309
			c0.384,0,0.71-0.103,0.979-0.309c0.268-0.206,0.487-0.489,0.657-0.85c0.169-0.361,0.293-0.791,0.369-1.289
			c0.076-0.498,0.114-1.04,0.114-1.625c0-0.585-0.043-1.126-0.127-1.625c-0.085-0.499-0.219-0.928-0.402-1.289
			c-0.183-0.361-0.424-0.645-0.724-0.85c-0.3-0.206-0.664-0.309-1.093-0.309c-0.411,0-0.755,0.103-1.032,0.309
			c-0.277,0.206-0.498,0.489-0.664,0.85c-0.166,0.361-0.282,0.791-0.349,1.289C48.696,38.317,48.662,38.858,48.662,39.443z"/>
		<path id="XMLID_51_" fill="#00005E" d="M72.407,43.351c0,0.21-0.01,0.45-0.028,0.72c-0.017,0.27-0.042,0.546-0.074,0.83
			c-0.032,0.283-0.067,0.562-0.107,0.836s-0.087,0.521-0.14,0.74h-0.523l-0.724-2.235h-6.409l-0.724,2.235h-0.523
			c-0.053-0.229-0.103-0.484-0.148-0.768c-0.045-0.284-0.083-0.569-0.114-0.857c-0.032-0.288-0.054-0.565-0.067-0.83
			c-0.013-0.265-0.02-0.489-0.02-0.672h1.167c0.25-0.384,0.48-0.859,0.69-1.426c0.21-0.566,0.389-1.186,0.537-1.858
			c0.147-0.672,0.259-1.38,0.335-2.125c0.075-0.745,0.114-1.492,0.114-2.242c-0.233-0.045-0.474-0.114-0.724-0.206
			s-0.483-0.201-0.697-0.329v-0.521h7.709v0.521c-0.313,0.174-0.679,0.306-1.099,0.397v7.789H72.407z M68.827,43.351v-7.816h-2.159
			c-0.045,1.061-0.12,2.011-0.228,2.852c-0.107,0.841-0.234,1.582-0.382,2.221c-0.147,0.64-0.307,1.186-0.476,1.639
			c-0.17,0.453-0.335,0.821-0.497,1.104H68.827z"/>
		<path id="XMLID_54_" fill="#00005E" d="M78.454,44.242h-4.022v-0.521c0.134-0.073,0.29-0.148,0.469-0.226
			c0.179-0.078,0.389-0.135,0.63-0.171v-7.761c-0.179-0.036-0.365-0.087-0.557-0.151c-0.192-0.063-0.373-0.146-0.542-0.247v-0.521
			h9.626v0.521c-0.17,0.109-0.349,0.194-0.537,0.253c-0.187,0.06-0.375,0.108-0.562,0.144v7.761c0.33,0.037,0.697,0.169,1.099,0.397
			v0.521h-4.022v-0.521c0.089-0.073,0.205-0.144,0.349-0.212c0.142-0.069,0.33-0.13,0.562-0.185v-7.789h-3.405v7.789
			c0.179,0.045,0.34,0.101,0.483,0.164c0.142,0.064,0.286,0.142,0.429,0.233V44.242z"/>
		<path id="XMLID_56_" fill="#00005E" d="M86.457,39.443c0-0.713,0.098-1.373,0.295-1.981c0.197-0.608,0.487-1.134,0.872-1.577
			c0.384-0.443,0.858-0.789,1.421-1.035c0.563-0.247,1.212-0.37,1.944-0.37c0.733,0,1.381,0.123,1.944,0.37
			c0.563,0.247,1.034,0.592,1.414,1.035c0.38,0.443,0.668,0.969,0.865,1.577c0.197,0.608,0.295,1.268,0.295,1.981
			c0,0.713-0.098,1.374-0.295,1.981c-0.197,0.608-0.485,1.134-0.865,1.577c-0.38,0.443-0.851,0.788-1.414,1.035
			c-0.563,0.247-1.211,0.37-1.944,0.37c-0.732,0-1.381-0.124-1.944-0.37c-0.562-0.247-1.037-0.592-1.421-1.035
			c-0.385-0.443-0.675-0.969-0.872-1.577C86.556,40.817,86.457,40.156,86.457,39.443z M88.737,39.443
			c0,0.585,0.045,1.127,0.135,1.625c0.089,0.499,0.23,0.928,0.422,1.289c0.192,0.361,0.438,0.645,0.737,0.85
			c0.3,0.206,0.659,0.309,1.08,0.309c0.384,0,0.71-0.103,0.979-0.309c0.267-0.206,0.487-0.489,0.657-0.85
			c0.169-0.361,0.292-0.791,0.369-1.289c0.075-0.498,0.114-1.04,0.114-1.625c0-0.585-0.043-1.126-0.127-1.625
			c-0.085-0.499-0.22-0.928-0.403-1.289c-0.183-0.361-0.424-0.645-0.724-0.85c-0.3-0.206-0.664-0.309-1.092-0.309
			c-0.412,0-0.755,0.103-1.032,0.309c-0.278,0.206-0.498,0.489-0.664,0.85c-0.166,0.361-0.282,0.791-0.349,1.289
			C88.77,38.317,88.737,38.858,88.737,39.443z"/>
	</g>
	<g id="XMLID_1_">
		<path id="XMLID_2_" fill="#00005E" d="M25.931,58.11l2.145-3.146l0.724,0.588l-1.314,1.984l-0.644,0.561l0.644,0.495l1.394,1.951
			l-0.724,0.604L25.931,58.11z M28.384,58.11l2.118-3.119l0.71,0.574l-1.3,1.971l-0.644,0.561l0.644,0.495l1.381,1.938l-0.697,0.591
			L28.384,58.11z"/>
		<path id="XMLID_5_" fill="#00005E" d="M42.261,63.436h-0.764l-0.201-1.768h-6.73V52.07h1.113v8.584h4.223V52.07h1.112v8.584h1.247
			V63.436z"/>
		<path id="XMLID_7_" fill="#00005E" d="M50.828,53.085h-4.33v8.584h-1.113V52.07h6.556v9.599h-1.113V53.085z"/>
		<path id="XMLID_9_" fill="#00005E" d="M55.441,56.869c0-1.6,0.33-2.826,0.992-3.682c0.661-0.854,1.604-1.281,2.829-1.281
			c0.661,0,1.233,0.118,1.716,0.356c0.483,0.237,0.883,0.573,1.2,1.008c0.317,0.434,0.551,0.955,0.704,1.563
			c0.152,0.608,0.228,1.287,0.228,2.036c0,1.601-0.333,2.827-0.999,3.682c-0.666,0.855-1.616,1.282-2.849,1.282
			c-0.653,0-1.218-0.119-1.696-0.356c-0.478-0.237-0.876-0.573-1.194-1.008c-0.317-0.434-0.552-0.955-0.704-1.563
			C55.516,58.298,55.441,57.619,55.441,56.869z M56.62,56.869c0,0.53,0.051,1.033,0.154,1.509c0.103,0.476,0.261,0.894,0.476,1.255
			c0.214,0.361,0.489,0.648,0.825,0.863c0.335,0.215,0.73,0.322,1.186,0.322c0.831,0,1.483-0.322,1.957-0.967
			c0.474-0.645,0.71-1.639,0.71-2.982c0-0.521-0.052-1.021-0.154-1.501s-0.264-0.9-0.483-1.262s-0.496-0.648-0.831-0.863
			c-0.335-0.215-0.735-0.322-1.2-0.322c-0.823,0-1.468,0.322-1.937,0.967C56.855,54.531,56.62,55.525,56.62,56.869z"/>
		<path id="XMLID_25_" fill="#00005E" d="M73.821,55.224l0.135-1.44h-0.068L73.379,55.1l-2.441,4.333h-0.335l-2.587-4.347
			l-0.483-1.303h-0.067l0.187,1.426v6.459h-1.046V52.07h0.832l2.936,4.909l0.442,1.069h0.027l0.415-1.097l2.803-4.882h0.872v9.599
			h-1.113V55.224z"/>
		<path id="XMLID_27_" fill="#00005E" d="M78.822,52.166c0.34-0.082,0.707-0.137,1.1-0.164c0.392-0.027,0.782-0.041,1.166-0.041
			c0.412,0,0.829,0.041,1.254,0.123c0.424,0.082,0.811,0.233,1.16,0.452c0.349,0.22,0.632,0.521,0.851,0.905
			s0.328,0.873,0.328,1.468c0,0.585-0.103,1.078-0.308,1.48c-0.205,0.402-0.478,0.729-0.817,0.98
			c-0.34,0.251-0.729,0.432-1.167,0.542c-0.438,0.109-0.889,0.164-1.354,0.164c-0.045,0-0.118,0-0.222,0
			c-0.102,0-0.21-0.002-0.322-0.007c-0.112-0.005-0.221-0.012-0.328-0.021c-0.107-0.009-0.183-0.019-0.227-0.027v3.647h-1.113
			V52.166z M81.115,52.948c-0.232,0-0.455,0.005-0.67,0.014c-0.214,0.009-0.384,0.032-0.509,0.068v3.977
			c0.044,0.019,0.116,0.029,0.214,0.034c0.098,0.005,0.201,0.009,0.308,0.014c0.108,0.005,0.21,0.007,0.308,0.007s0.17,0,0.215,0
			c0.304,0,0.605-0.029,0.905-0.089c0.299-0.06,0.569-0.167,0.811-0.322c0.242-0.155,0.435-0.375,0.583-0.658
			c0.147-0.283,0.222-0.645,0.222-1.083c0-0.375-0.07-0.688-0.208-0.939c-0.138-0.252-0.322-0.453-0.55-0.604
			c-0.227-0.15-0.485-0.258-0.771-0.322C81.687,52.98,81.401,52.948,81.115,52.948z"/>
		<path id="XMLID_34_" fill="#00005E" d="M90.232,57.987l-2.145,3.133l-0.697-0.577l1.287-1.979l0.657-0.563l-0.657-0.493
			l-1.368-1.929l0.697-0.588L90.232,57.987z M92.673,57.987l-2.146,3.16l-0.724-0.591l1.314-1.992l0.644-0.563l-0.644-0.493
			l-1.394-1.942l0.71-0.602L92.673,57.987z"/>
	</g>
</g>
<g id="XMLID_18_">
</g>
<g id="XMLID_19_">
</g>
<g id="XMLID_22_">
</g>
<g id="XMLID_24_">
</g>
<g id="XMLID_29_">
</g>
<g id="XMLID_30_">
</g>
<g id="XMLID_31_">
</g>
<g id="XMLID_32_">
</g>
<g id="XMLID_48_">
</g>
<g id="XMLID_85_">
</g>
<g id="XMLID_99_">
</g>
<g id="XMLID_100_">
</g>
<g id="XMLID_101_">
</g>
<g id="XMLID_102_">
</g>
<g id="XMLID_103_">
</g>
</svg>
