<?xml version="1.0" encoding="utf-8"?>
<!-- Generator: Adobe Illustrator 19.0.0, SVG Export Plug-In . SVG Version: 6.00 Build 0)  -->
<svg version="1.1" id="Layer_1" xmlns="http://www.w3.org/2000/svg" xmlns:xlink="http://www.w3.org/1999/xlink" x="0px" y="0px"
	 width="1000px" height="1000px" viewBox="0 0 1000 1000" enable-background="new 0 0 1000 1000" xml:space="preserve">
<path id="XMLID_4_" fill="#00005E" d="M32.819,31.86l-5.712-5.941c1.469-1.746,2.273-3.943,2.273-6.229
	c0-5.343-4.347-9.69-9.69-9.69S10,14.347,10,19.69s4.347,9.69,9.69,9.69c2.006,0,3.917-0.605,5.552-1.753l5.755,5.986
	C31.238,33.862,31.561,34,31.908,34c0.328,0,0.64-0.125,0.876-0.353C33.286,33.164,33.302,32.363,32.819,31.86z M19.69,12.528
	c3.949,0,7.162,3.213,7.162,7.162s-3.213,7.162-7.162,7.162s-7.162-3.213-7.162-7.162S15.741,12.528,19.69,12.528z"/>
<g id="XMLID_30_">
</g>
<g id="XMLID_31_">
</g>
<g id="XMLID_32_">
</g>
<g id="XMLID_33_">
</g>
<g id="XMLID_34_">
</g>
<g id="XMLID_35_">
</g>
<g id="XMLID_36_">
</g>
<g id="XMLID_37_">
</g>
<g id="XMLID_38_">
</g>
<g id="XMLID_39_">
</g>
<g id="XMLID_40_">
</g>
<g id="XMLID_41_">
</g>
<g id="XMLID_42_">
</g>
<g id="XMLID_43_">
</g>
<g id="XMLID_44_">
</g>
</svg>
